PathFileType	4	(X/Y/Z)	T1_P1_Vision_Movement_3_0-659.trc
DataRate	CameraRate	NumFrames	NumMarkers	Units	OrigDataRate	OrigDataStartFrame	OrigNumFrames
60	60	6	27	m	60	82	659
Frame#	Time	RHip			RKnee			RAnkle			RBigToe			RSmallToe			RHeel			LHip			LKnee			LAnkle			LBigToe			LSmallToe			LHeel			Neck			Head			Nose			RShoulder			RElbow			RWrist			RThumb			RIndex			RPinky			LShoulder			LElbow			LWrist			LThumb			LIndex			LPinky		
		X1	Y1	Z1	X2	Y2	Z2	X3	Y3	Z3	X4	Y4	Z4	X5	Y5	Z5	X6	Y6	Z6	X7	Y7	Z7	X8	Y8	Z8	X9	Y9	Z9	X10	Y10	Z10	X11	Y11	Z11	X12	Y12	Z12	X13	Y13	Z13	X14	Y14	Z14	X15	Y15	Z15	X16	Y16	Z16	X17	Y17	Z17	X18	Y18	Z18	X19	Y19	Z19	X20	Y20	Z20	X21	Y21	Z21	X22	Y22	Z22	X23	Y23	Z23	X24	Y24	Z24	X25	Y25	Z25	X26	Y26	Z26	X27	Y27	Z27
83	1.3833333333333333	-94.60228317483029	3852.2750296657405	-628.2510103396295	246.77103086604947	3996.6475071416985	-631.5295488257718	605.5696848663713	4271.884031836991	-695.2696307250162	682.7283501820034	4187.3696205622055	-647.540018754075	675.7786587489428	4143.759887049908	-687.7552958238211	643.761176225266	4317.904216955169	-698.3373492715323	-114.35889531101652	4054.1938299583126	-508.0611767450015	216.30761367645073	4163.608354581633	-502.54553999573403	571.0061539273191	4337.079958656848	-515.6074062193948	645.7087635518325	4234.3474003121855	-405.0298854835676	623.702921559608	4288.463931221956	-383.24414092614904	630.1134453365592	4386.034724406367	-543.32830760066	-679.5042950257439	3768.9967243043466	-582.7973756304269	-922.4062621371434	3583.512167548772	-452.02743325918374	-770.692964893208	3620.530781755759	-443.3381330770869	-580.5460134243046	3730.182959801476	-709.7290332650093	-318.84790021949937	3614.709749814132	-691.8222109604333	-491.03662879027814	3529.715980954334	-546.8509125441308	-571.1782758372073	3482.8221914930396	-455.6392730546856	-569.4354043966562	3463.9603623285348	-431.42535834470436	-545.4293853003826	3459.6881680583374	-434.5326378605862	-631.4420979130296	3908.6671390029687	-489.6058234778734	-404.21423215991865	4119.128818810237	-453.2798542135557	-157.07557627558614	4095.6399510473375	-366.9492945167879	-18.85976943413714	4071.7032254492883	-366.63869623071514	14.437352930905341	4147.6076163390335	-372.15540539923364	-15.003160546211943	4157.920792588617	-342.74210035004165
84	1.4	-93.91724224174419	3840.4451660051163	-622.399113508239	245.9678433804513	3992.5518874179807	-630.3580876415426	604.348987957677	4270.751814829901	-694.4465302746516	684.9970620625451	4194.765218978158	-649.0588270888277	674.9518409902598	4140.476443288996	-685.2330414224534	644.9805599547926	4318.049170361825	-697.9783906130276	-115.57437895813786	4053.4392739389996	-507.7190845766808	216.30376255614337	4163.561229820287	-501.8796187569043	571.2075674272842	4337.221097615371	-513.3613683664064	645.715913699927	4232.827772331457	-402.84799943240034	623.6962300124679	4287.840570801627	-383.08249528102294	629.6836465612689	4385.447564721972	-541.2580441633799	-679.4943839677757	3768.960322946808	-582.746257405913	-922.4386422054749	3583.431302390094	-451.9376209926428	-770.7504987213841	3620.5415075642677	-443.3312817768766	-579.7615763913874	3730.4131892812316	-709.6725123624974	-317.5325667601777	3615.5134550379316	-692.7565128346289	-492.79004360861416	3536.225652898639	-547.7732596346301	-570.7951682418227	3482.969017082671	-455.6013139708472	-568.9872890576611	3464.03031215414	-431.92518438229547	-545.7126606013392	3461.1876441682916	-434.7509106107541	-631.417843963312	3908.6578191232275	-489.56113762717337	-405.5939464038529	4118.179047169535	-452.87896439716883	-157.16046318115525	4095.435571611383	-366.8413151823263	-20.29984781799765	4065.2493746057476	-365.43389561712274	14.63883293613701	4141.933992259036	-370.9871214607197	-15.283098464523071	4156.797282308228	-340.0771460293694
85	1.4166666666666667	-93.7806521899703	3831.765199527772	-619.0389304878595	245.28470558279992	3984.136121670768	-628.1907036038648	603.0057486737899	4269.379512481459	-692.865045334765	685.541039328703	4198.9342164739855	-649.9586006056758	674.5709154157655	4138.945975422074	-684.037856406712	645.6982463240793	4317.953673633571	-697.6208289704466	-116.41811131354123	4052.913506933543	-507.4750055814185	216.1141922381756	4163.404163222612	-500.2947064978858	570.3966821588143	4336.476408104915	-509.8268463850877	645.55032105749	4233.501215449324	-400.8427683188608	623.8182586218106	4288.70085147665	-383.225939787384	628.980094796713	4384.905800099141	-538.6986319977419	-679.4357114750984	3768.9191269429966	-582.6893688004767	-922.4738248736785	3583.374189106323	-451.90931697417716	-770.6908733634087	3620.5366700808527	-443.3074952107089	-579.2484770536603	3730.5741354763186	-709.6318511638124	-315.8741482383034	3616.73358880301	-692.8340513115883	-493.7781743018325	3544.231581978797	-549.7077665102961	-570.7861932060989	3483.0552000844823	-455.68835306601255	-568.1638426801978	3464.515797453013	-433.140308177653	-546.1853919855666	3464.74440801766	-435.4954201642408	-631.3944070700541	3908.6251799338334	-489.5131716740135	-407.16682832357844	4117.038486182908	-452.3774355355121	-157.24193538216022	4095.298008039509	-366.70605891097375	-21.416486196906217	4059.9220872814094	-364.1398069662315	14.081957144378432	4136.134316845978	-369.58071201725255	-15.575759110755385	4155.765221401703	-337.5751500839053
86	1.4333333333333331	-93.89642542493416	3830.7631785375024	-618.7408892900489	244.73926252754126	3974.5033956675334	-625.7779854207379	601.960978740397	4267.957919393793	-690.5546958462917	683.5701504543991	4194.793258547212	-648.9989553391883	674.9246686106328	4140.405963903254	-685.1384995379813	645.7892704036236	4317.70096214873	-697.3584464176923	-116.31303391387088	4052.9812660447315	-507.49798081153233	215.83610714492897	4163.291130058438	-498.26024495823356	569.7355654891028	4335.584357252993	-506.4510617943249	645.298620184243	4234.654057371581	-399.0998480147744	624.1876578835753	4292.160858578721	-383.8571858188875	627.8586926026301	4384.108716524495	-536.5508909505444	-679.4863466384278	3768.851551704527	-582.6584546568647	-922.4991005051734	3583.3858925627364	-452.0991709770753	-770.6641199160282	3620.5168307531094	-443.2834700753052	-579.1101773213727	3730.619655598232	-709.6225090498418	-314.7474367866615	3617.669312516665	-692.3023718186213	-493.4761457561126	3547.789474875679	-550.633124007661	-571.0520462120023	3483.023431257896	-455.7752517846961	-567.6329994050118	3464.8500979083133	-433.8586780294378	-546.6796507677052	3468.443264601551	-436.32691330588784	-631.3842837157678	3908.5816471044413	-489.477240754528	-407.9479981791047	4116.49141429901	-452.10922742349294	-157.26334428392957	4095.2654589235003	-366.6145215662832	-22.196675667196576	4057.4638609897497	-363.34180522751416	13.800074024878178	4132.881320617127	-368.71637051184865	-15.764079222394894	4155.110327665958	-336.01285590774404
87	1.45	-94.0702530392328	3834.7218996596375	-619.9617737562761	244.55170801609185	3969.6560986508257	-624.5866795654547	602.240345093066	4267.332280450748	-688.8440352441543	681.4784942684227	4187.151479997425	-647.2034873938442	675.7094913762236	4143.574619102013	-687.5594586282218	645.6543520913751	4317.362219287789	-697.1360068790685	-115.50286889982789	4053.484356750331	-507.7448652672586	215.63452016949662	4163.283636589147	-496.7493756804398	569.6293607258073	4335.197907704067	-504.9890282644464	644.7111215594923	4233.005042902017	-397.0932053027312	624.7805700338051	4297.4387840403615	-384.8173984234409	627.4085766866364	4383.700794668626	-535.7727106725393	-679.8991283380174	3768.675471780456	-582.6531238419893	-922.5119753831859	3583.542136261013	-452.7538023240313	-770.6824937251819	3620.5166427935083	-443.2711363946486	-579.1347774239921	3730.582763873264	-709.6210473281141	-314.8123545526414	3617.714993246336	-691.6680737861145	-491.61720860481853	3543.8737469256034	-549.5260361302522	-571.0660274673845	3483.1520833119644	-455.94064812578864	-567.48160949958	3464.950827883141	-433.7989117731002	-546.9750044467947	3470.452240368815	-436.8414043352149	-631.3703027367366	3908.497316128819	-489.42745838246185	-407.72417055891515	4116.673896028324	-452.15121781784865	-157.20645700590637	4095.317605748847	-366.60557112817264	-22.889892563269537	4057.988440644377	-363.3376744152262	14.698404999260305	4133.667381809338	-368.8929882457501	-15.748477439253875	4154.994827353827	-335.9041858678984
88	1.4666666666666666	-94.1522019015105	3837.3176699884666	-620.6663039294804	244.7222928837616	3970.931927318259	-624.9304209593254	604.3699885532611	4268.106636522477	-689.1601995876911	681.7534359427905	4183.9804870193675	-646.4031271866186	676.1527008024092	4145.163471416444	-688.822335350932	645.6301537968311	4317.051241156166	-696.9508761785626	-115.02377497382491	4053.757346133034	-507.9510292501594	215.57489708274045	4163.292457378251	-496.17453050803374	570.0129005581623	4335.408599126759	-505.8513500848789	644.035085721794	4229.071047518478	-395.6504564981461	625.2504825452421	4300.274316427989	-385.33457486195334	628.8909948761324	4384.593762636887	-536.8909200205865	-680.7339613532057	3768.3704643925157	-582.6541515655244	-922.5178326533455	3583.816756192713	-453.75930130605127	-770.7303872945577	3620.552402418322	-443.2787268552861	-579.1756108411167	3730.51673248048	-709.6076808715648	-316.0833186924111	3616.839848083213	-691.0369887557138	-489.4374269309735	3536.3937450410913	-547.4543243340672	-570.8030316706829	3483.529319741556	-456.2286412753168	-568.0958173702472	3465.011356208682	-433.82419701088384	-547.122720904698	3470.945965991563	-437.05234960980215	-631.3438498572441	3908.359716999174	-489.3454827916129	-407.4027939553149	4116.861715591831	-452.2167119962767	-157.12323839719068	4095.3859924734443	-366.6335447601368	-23.538219770494724	4061.749671854961	-364.1624167434524	15.963773328718156	4138.657995598091	-369.98814138353623	-15.588379712427868	4155.3116969917	-336.93290840364756
